<?xml version="1.0" encoding="UTF-8"?>
<svg width="100px" height="46px" viewBox="0 0 100 46" version="1.1" xmlns="http://www.w3.org/2000/svg" xmlns:xlink="http://www.w3.org/1999/xlink">
    <!-- Generator: Sketch 56.3 (81716) - https://sketch.com -->
    <title>Xbox</title>
    <desc>Created with Sketch.</desc>
    <g id="Xbox" stroke="none" stroke-width="1" fill="none" fill-rule="evenodd">
        <path d="M12.5412121,16.0604225 C13.5077599,15.9416277 14.3971654,15.9964561 15.3637133,16.2386146 C16.0988341,16.4213757 17.1561376,16.8737094 17.1561376,17.0062112 C17.1561376,17.0427635 17.0336175,17.0838847 16.7976527,17.1158679 C16.6025281,17.1478511 16.2758077,17.2255246 16.0670697,17.29406 C15.6042158,17.449407 14.6013657,17.9382929 13.9933027,18.3083842 C13.7391869,18.4637312 13.4896088,18.5916639 13.4396932,18.5916639 C13.3943154,18.5916639 13.1401995,18.4637312 12.8815459,18.3083842 C11.8151668,17.6732893 10.6353432,17.1752653 10.0000535,17.1021608 C9.82308,17.0838847 9.7141732,17.0519015 9.7141732,17.0153493 C9.7141732,16.9559519 10.3267739,16.6543961 10.8259301,16.467066 C11.2751706,16.2934429 11.9876026,16.1289579 12.5412121,16.0604225 Z M8.15317579,18.1895895 C8.50712288,17.8286363 8.63418081,17.7235486 8.73401204,17.7235486 C8.99266568,17.7235486 9.8775334,18.267263 10.5582009,18.8520985 C11.0664326,19.2907252 11.7561756,19.9669414 11.7561756,20.0309077 C11.7561756,20.0583219 11.5882777,20.2684972 11.3886152,20.4923796 C9.07888356,23.0327591 7.69032191,25.5046032 7.54965063,27.3048002 C7.51334836,27.7845482 7.46343275,27.7891172 7.16393906,27.3413525 C6.71016074,26.6697053 6.32444917,25.7193475 6.15655119,24.8740774 C5.98411543,23.996824 5.95688874,23.3114698 6.06125775,22.5073209 C6.28360912,20.7802283 6.94158768,19.4323651 8.15317579,18.1895895 Z M17.8050406,17.8560504 C17.9593252,17.782946 18.131761,17.7235486 18.1907522,17.7235486 C18.3359612,17.7235486 19.1845267,18.596233 19.5702383,19.1445163 C20.4097281,20.3324636 20.8181286,21.5706702 20.8635065,23.0830184 C20.9088843,24.3897604 20.7228352,25.3355492 20.1964523,26.4732371 C19.9377987,27.0443656 19.5248604,27.6840295 19.4204914,27.6840295 C19.3433491,27.6840295 19.3342735,27.6520464 19.3342735,27.3961808 C19.3342735,27.2408338 19.2934335,26.934709 19.2435179,26.7108266 C18.8578063,24.9563199 17.6144537,22.859136 15.6541314,20.6614336 C15.3818644,20.3553087 15.159513,20.076598 15.159513,20.0400458 C15.159513,20.0034936 15.4045533,19.7339209 15.704047,19.4460722 C16.4527812,18.7195967 17.2287421,18.1347611 17.8050406,17.8560504 Z M12.9359993,21.8905021 C13.1810396,21.6757578 13.4033909,21.5158418 13.4578443,21.5158418 C13.5213733,21.5158418 13.9297738,21.876795 14.6648946,22.5849944 C17.3739512,25.1939093 19.0120909,27.2773861 19.0166287,28.1180872 C19.0166287,28.2825722 18.989402,28.3328315 18.8033529,28.5110236 C17.5963026,29.6806948 16.144212,30.4117392 14.5469123,30.6493287 C12.4776832,30.9554536 10.2768583,30.370618 8.76123874,29.1095663 C8.33014934,28.7486131 7.8536821,28.2597271 7.8536821,28.1729155 C7.8536821,27.8987739 8.77485209,26.4275469 9.63249311,25.3401182 C10.4402185,24.3120869 11.8605446,22.8317219 12.9359993,21.8905021 Z M76.8361372,20.3505046 L76.8361372,29.3228527 L75.5935175,29.3228527 L75.5935175,18.151449 L76.7013453,18.153555 L83.4598656,27.3357288 L83.4598656,18.1603997 L84.704588,18.1603997 L84.704588,29.3312799 L83.4588412,29.3302285 L76.8361372,20.3505046 Z M69.1319121,17.9011091 C72.2700362,17.9011091 74.4582993,20.3036402 74.4582993,23.742937 C74.4582993,27.1877869 72.2700362,29.5898327 69.1319121,29.5898327 C65.990627,29.5898327 63.7949968,27.1877869 63.7949968,23.742937 C63.7949968,20.3036402 65.990627,17.9011091 69.1319121,17.9011091 Z M69.1319121,28.406198 L69.1319323,28.406198 C71.5213683,28.406198 73.1883102,26.4885404 73.1883102,23.742937 C73.1883102,20.9997595 71.5213143,19.0818324 69.1319121,19.0818324 C66.7393556,19.0818324 65.0618299,20.9997595 65.0618299,23.742937 C65.0618299,26.4885404 66.7393556,28.406198 69.1319121,28.406198 Z M93.9231147,19.2458434 L87.3551901,19.2458434 L87.3551901,23.0113293 L93.5050441,23.0113293 L93.5050441,24.1049338 L87.3551901,24.1049338 L87.3551901,28.2387268 L94,28.2387268 L94,29.3323313 L86.1020027,29.3323313 L86.1020027,18.1530288 L93.9231147,18.1530288 L93.9231147,19.2458434 Z M53.5258171,18.1601366 L56.7226499,22.5027001 L59.9165712,18.1601366 L61.3855874,18.1601366 L57.4661082,23.4838882 L61.7626273,29.3418099 L60.2936111,29.3418099 L56.7226499,24.4932478 L53.1535758,29.3418099 L51.6824568,29.3418099 L55.9770889,23.4838882 L52.0557226,18.1601366 L53.5258171,18.1601366 Z M40.6331864,23.9069518 L40.6331864,23.9070057 C41.2650235,24.4485457 41.5977911,25.1969643 41.5977911,26.0773172 C41.5977911,28.0918632 40.069271,29.3412764 37.6098443,29.3412764 L33.0695675,29.3407912 L33.0695675,24.1028314 L30.7449394,24.1028314 C30.9150064,23.8503931 31.3599275,23.2364429 31.556845,22.9808235 L33.0695675,22.9808235 L33.0695675,18.1606644 L37.6098443,18.1606644 C40.9806935,18.1606644 41.244488,20.4866337 41.244488,21.2021631 C41.244488,22.1678662 40.7121678,23.0002875 39.9007811,23.4407335 C40.1466685,23.554444 40.3999358,23.7082146 40.6331864,23.9069518 Z M34.3248172,19.326938 L34.3248172,22.9808235 L37.6098443,22.9808235 C39.120464,22.9808235 39.9881869,22.2800131 39.9881869,21.1039806 C39.9881869,19.5483741 38.4996799,19.326938 37.6098443,19.326938 L34.3248172,19.326938 Z M37.6098511,28.1750568 L37.6098443,28.1750568 C38.632369,28.1750568 40.3457023,27.8980864 40.3457023,26.0531086 C40.3457023,24.4484918 38.8556181,24.1044489 37.6098511,24.1044489 L34.3248239,24.1044489 L34.3248239,28.1750568 L37.6098511,28.1750568 Z M47.5033549,17.901864 L47.5033482,17.901864 C50.6414764,17.901864 52.8297422,20.3044489 52.8297422,23.7437458 C52.8297422,27.1883261 50.6414764,29.5892935 47.5033549,29.5892935 C44.363128,29.5892935 42.1680215,27.1883261 42.1680215,23.7437458 C42.1680215,20.3044489 44.363128,17.901864 47.5033549,17.901864 Z M47.5033482,28.4066832 L47.5033617,28.4066832 C49.8922289,28.4066832 51.5597396,26.4890796 51.5597396,23.7437458 C51.5597396,21.0005144 49.8922154,19.0834499 47.5033482,19.0834499 C45.1107918,19.0834499 43.4348431,21.0005144 43.4348431,23.7437458 C43.4348431,26.4890796 45.1107918,28.4066832 47.5033482,28.4066832 Z M22.7564092,18.1603997 L24.2217429,18.1603997 L27.4162033,22.5040157 L30.6133003,18.1603997 L32.0828503,18.1603997 L28.1607184,23.4836294 L32.4587903,29.3407585 L30.988189,29.3407585 L27.4183115,24.4935119 L23.8505367,29.3407585 L22.378361,29.3407585 L26.6759046,23.4836294 L22.7564092,18.1603997 Z" id="Shape" fill="#FFFFFF" fill-rule="nonzero"></path>
    </g>
</svg>