<?xml version="1.0" encoding="UTF-8"?>
<svg width="100px" height="47px" viewBox="0 0 100 47" version="1.1" xmlns="http://www.w3.org/2000/svg" xmlns:xlink="http://www.w3.org/1999/xlink">
    <!-- Generator: Sketch 56.3 (81716) - https://sketch.com -->
    <title>Iphone</title>
    <desc>Created with Sketch.</desc>
    <g id="Iphone" stroke="none" stroke-width="1" fill="none" fill-rule="evenodd" transform="translate(0.000000, 0.000000)">
        <g id="Group-6" transform="translate(13.000000, 14.000000)" fill="#FFFFFF" fill-rule="nonzero">
            <path d="M32.9487751,9.41469125e-14 C33.3107845,9.41469125e-14 33.6727939,9.41469125e-14 34.1072052,9.41469125e-14 C34.1072052,2.54303195 34.1072052,5.00900233 34.1072052,7.55203429 C34.6140184,6.70435697 35.1932334,6.0108028 36.062056,5.62549493 C37.4376917,5.08606391 39.1753369,5.24018706 40.1889632,6.39611067 C40.9853839,7.24378799 41.3473933,8.47677318 41.3473933,9.63269679 C41.3473933,12.1757287 41.3473933,14.6416991 41.3473933,17.1847311 C40.9853839,17.1847311 40.6233745,17.1847311 40.2613651,17.1847311 C40.2613651,14.8728838 40.2613651,12.5610366 40.2613651,10.2491894 C40.2613651,9.09326577 40.0441594,7.78321901 39.1753369,6.93554169 C38.4513181,6.24198752 37.4376917,6.24198752 36.5688692,6.39611067 C35.0484297,6.85848012 33.9624015,8.55383475 34.0348033,10.2491894 C34.0348033,12.5610366 34.0348033,14.8728838 34.0348033,17.1847311 C33.6727939,17.1847311 33.3107845,17.1847311 32.8763733,17.1847311 C32.9487751,11.4821746 32.9487751,5.7025565 32.9487751,9.41469125e-14 L32.9487751,9.41469125e-14 Z M23.2469231,1.00180047 C25.3465777,0.693554169 27.591036,0.385307872 29.5458868,1.38710834 C30.9215225,2.08066251 31.6455413,3.77601714 31.5007375,5.3943102 C31.5731394,7.08966484 30.7043168,8.78501947 29.2562792,9.55563522 C27.7358397,10.4033125 25.9257927,10.4033125 24.2605495,10.1721278 C24.2605495,12.483975 24.1881476,14.7958223 24.2605495,17.1076695 C23.8985401,17.1076695 23.5365307,17.1076695 23.1745213,17.1076695 C23.2469231,11.7904209 23.1745213,6.39611067 23.2469231,1.00180047 L23.2469231,1.00180047 Z M24.3329514,1.92653936 C24.3329514,4.39250974 24.1881476,6.85848012 24.4053532,9.3244505 C26.1429984,9.55563522 28.0978491,9.63269679 29.4734849,8.32265003 C30.9939244,6.78141854 30.8491206,3.46777085 28.8942698,2.3889088 C27.4462322,1.54123149 25.8533908,1.69535464 24.3329514,1.92653936 L24.3329514,1.92653936 Z M19.7716329,1.07886204 C20.4232498,0.770615743 21.1472686,1.31004676 21.0748667,2.08066251 C21.0748667,2.92833982 20.0612404,3.23658612 19.4820254,2.77421668 C19.0476141,2.31184723 19.1924178,1.38710834 19.7716329,1.07886204 Z M47.1395437,5.3943102 C48.5875813,5.16312548 50.2528246,5.54843335 51.3388528,6.70435697 C52.5696848,8.01440373 53.004096,9.86388152 52.9316942,11.6362977 C52.9316942,13.1775292 52.424881,14.8728838 51.3388528,15.9517459 C49.8908152,17.5700389 47.4291512,17.9553468 45.6191042,16.8764848 C44.2434685,16.105869 43.3746459,14.5646376 43.1574403,12.9463445 C42.9402346,11.3280514 43.0126365,9.55563522 43.7366553,8.09146531 C44.3882723,6.70435697 45.6915061,5.62549493 47.1395437,5.3943102 L47.1395437,5.3943102 Z M46.9223381,6.47317224 C45.6915061,6.85848012 44.8226835,8.01440373 44.3882723,9.3244505 C43.8814591,10.9427436 43.953861,12.7151598 44.6054779,14.2563913 C45.0398892,15.2581917 45.9087117,16.105869 46.9223381,16.4141153 C47.9359644,16.6453001 49.0943945,16.4911769 49.9632171,15.7976227 C51.2664509,14.7187607 51.7732641,12.9463445 51.7732641,11.2509899 C51.7008622,9.70975837 51.194049,8.09146531 50.0356189,7.08966484 C49.2391983,6.24198752 48.0083663,6.08786437 46.9223381,6.47317224 L46.9223381,6.47317224 Z M54.5245355,5.54843335 C54.8865449,5.54843335 55.2485543,5.54843335 55.6105637,5.54843335 C55.6105637,6.24198752 55.6105637,6.93554169 55.6105637,7.62909586 C56.044975,6.85848012 56.6965919,6.08786437 57.4930126,5.7025565 C59.0134521,4.93194076 61.0407048,5.16312548 62.0543311,6.62729539 C62.8507518,7.62909586 63.0679574,9.0162042 63.0679574,10.2491894 C63.0679574,12.5610366 63.0679574,14.8728838 63.0679574,17.1847311 C62.705948,17.1847311 62.3439386,17.1847311 61.9819292,17.1847311 C61.9819292,14.8728838 61.9819292,12.5610366 61.9819292,10.2491894 C61.9819292,9.09326577 61.7647236,7.78321901 60.9683029,7.01260326 C60.316686,6.3190491 59.3754615,6.24198752 58.506639,6.39611067 C56.8413957,6.70435697 55.6829656,8.55383475 55.7553675,10.326251 C55.7553675,12.6380982 55.7553675,14.9499454 55.7553675,17.2617927 C55.3933581,17.2617927 55.0313487,17.2617927 54.6693393,17.2617927 C54.5969374,13.3316524 54.6693393,9.40151207 54.5245355,5.54843335 L54.5245355,5.54843335 Z M66.1812383,6.85848012 C67.7016778,5.00900233 70.8873605,4.70075603 72.4078,6.70435697 C73.4214263,7.93734216 73.638632,9.70975837 73.638632,11.3280514 C71.0321643,11.3280514 68.3532947,11.2509899 65.746827,11.3280514 C65.746827,13.0234061 66.2536402,15.027007 67.7016778,15.9517459 C69.2221173,16.8764848 71.176968,16.5682385 72.7698094,15.8746843 C72.8422113,16.1829306 72.9870151,16.4911769 73.0594169,16.7994232 C71.5389774,17.4929774 69.7289304,17.7241621 68.0636872,17.2617927 C66.3984439,16.7223616 65.167612,15.1040686 64.8780044,13.3316524 C64.4435932,11.0968667 64.7332007,8.55383475 66.1812383,6.85848012 L66.1812383,6.85848012 Z M67.1948646,7.08966484 C66.3260421,7.93734216 65.9640326,9.17032735 65.746827,10.326251 C67.9912853,10.326251 70.1633417,10.326251 72.4078,10.326251 C72.3353981,9.24738892 72.1905944,8.16852688 71.5389774,7.32084956 C70.5253511,5.93374122 68.4256966,5.93374122 67.1948646,7.08966484 L67.1948646,7.08966484 Z M19.6268291,5.54843335 L20.7128573,5.54843335 C20.7128573,9.40151207 20.7128573,13.3316524 20.7128573,17.1847311 C20.3508479,17.1847311 19.9888385,17.1847311 19.6268291,17.1847311 C19.6268291,13.3316524 19.6268291,9.40151207 19.6268291,5.54843335 L19.6268291,5.54843335 Z" id="Iphone"></path>
            <g id="Group">
                <path d="M7.65967584,5.02890679 C8.24327019,5.02890679 9.41045889,4.19075566 10.9423941,4.19075566 C13.4956193,4.19075566 14.5169095,5.93690385 14.5169095,5.93690385 C14.5169095,5.93690385 12.5472785,6.91474684 12.5472785,9.28950838 C12.5472785,11.9436536 15.0275545,12.8516507 15.0275545,12.8516507 C15.0275545,12.8516507 13.2767715,17.5313278 10.9423941,17.5313278 C9.84815465,17.5313278 9.04571242,16.8328686 7.87852372,16.8328686 C6.71133502,16.8328686 5.61709562,17.5313278 4.81465339,17.5313278 C2.69912387,17.5313278 -1.95399252e-14,13.1310344 -1.95399252e-14,9.56889209 C-1.95399252e-14,6.07659571 2.26142811,4.26060159 4.37695762,4.26060159 C5.8359435,4.26060159 6.9301829,5.02890679 7.65967584,5.02890679 Z" id="Path"></path>
                <path d="M8.24327019,1.53661041 C9.48340819,7.72715225e-14 11.0882926,7.72715225e-14 11.0882926,7.72715225e-14 C11.0882926,7.72715225e-14 11.3071405,1.39691855 10.1399518,2.79383711 C8.82686454,4.26060159 7.44082796,4.0510638 7.44082796,4.0510638 C7.44082796,4.0510638 7.22198008,2.86368303 8.24327019,1.53661041 L8.24327019,1.53661041 Z" id="Path"></path>
            </g>
        </g>
    </g>
</svg>