<svg id="Layer_1" data-name="Layer 1" xmlns="http://www.w3.org/2000/svg" viewBox="0 0 73 33"><defs><style>.cls-1{fill:none;}.cls-2{fill:#fff;}</style></defs><rect class="cls-1" width="73" height="33"/><path class="cls-2" d="M44.06-35.35l.14.07a2.26,2.26,0,0,1,1.41,1.7,2.48,2.48,0,0,1-1.91,2.94h-.05a5.48,5.48,0,0,1-1.07.12H38.15v-4.15H36.07l0-.11.74-1a.24.24,0,0,1,.16-.07h1.12v-4h4.22a3.73,3.73,0,0,1,1.51.29,2.29,2.29,0,0,1,1.37,2.46,2.13,2.13,0,0,1-1.07,1.66Zm-4.5,3.62h2.9a3.78,3.78,0,0,0,.74-.11,1.17,1.17,0,0,0,.91-.84,1.84,1.84,0,0,0,.07-.66,1.24,1.24,0,0,0-.82-1.18,2.83,2.83,0,0,0-1-.14H39.54Zm0-4.12H42.5A1.27,1.27,0,0,0,43.86-37a1.26,1.26,0,0,0-1-1.5l-.12,0a3.9,3.9,0,0,0-.58,0H39.56Z" transform="translate(0 47.98)"/><path class="cls-2" d="M46.11-35.16a5.58,5.58,0,0,1,.81-3A4.09,4.09,0,0,1,49.87-40a5.23,5.23,0,0,1,2.74.28,4,4,0,0,1,2.33,2.52,5.91,5.91,0,0,1,0,4,4.1,4.1,0,0,1-3.33,2.84,4.8,4.8,0,0,1-3.12-.4,4.26,4.26,0,0,1-2.3-3.15C46.17-34.32,46.16-34.75,46.11-35.16Zm7.72,0c0-.37-.07-.74-.13-1.09a2.94,2.94,0,0,0-3.09-2.51A2.78,2.78,0,0,0,48-37a4.54,4.54,0,0,0-.18,3.32,2.82,2.82,0,0,0,2.56,2.15,2.91,2.91,0,0,0,3.1-1.75,5,5,0,0,0,.35-1.79Z" transform="translate(0 47.98)"/><path class="cls-2" d="M37.39-30.48H35.86s-.11-.06-.14-.11l-2.55-3.52-.11-.14-.12.17L30.4-30.6a.27.27,0,0,1-.25.13H28.72l.24-.32,3.2-4.41a.18.18,0,0,0,0-.24h0c-1-1.39-2-2.79-3-4.19L29-39.81h1.47a.24.24,0,0,1,.23.11L33-36.53l.09.12.1-.14,2.28-3.15a.22.22,0,0,1,.22-.11h1.47l-.1.14L34-35.44a.17.17,0,0,0,0,.23h0l3.34,4.59A.35.35,0,0,0,37.39-30.48Z" transform="translate(0 47.98)"/><path class="cls-2" d="M59.78-35.35l1.77,2.43,1.78,2.43H61.85a.26.26,0,0,1-.23-.13q-1.27-1.77-2.57-3.52L59-34.27l-.1.13L56.3-30.6a.27.27,0,0,1-.17.1H54.65c.59-.82,1.17-1.63,1.76-2.43l1.75-2.43-3.25-4.47h1.47a.28.28,0,0,1,.23.11c.74,1.06,1.52,2.11,2.27,3.16l.11.13.53-.74,1.84-2.53a.25.25,0,0,1,.24-.12h1.47C61.94-38.33,60.87-36.84,59.78-35.35Z" transform="translate(0 47.98)"/><path class="cls-2" d="M42.46-24.79a.72.72,0,0,1,.5.73c0,.35.07.69.1,1h-.48a.11.11,0,0,1-.09-.08,1.36,1.36,0,0,1-.07-.35V-24a.5.5,0,0,0-.48-.52,0,0,0,0,0,0,0H40.72V-23h-.55v-3.69h1.66a1.59,1.59,0,0,1,.53.08.91.91,0,0,1,.73.83A1,1,0,0,1,42.46-24.79ZM40.72-25H41.9a.56.56,0,0,0,.57-.53.57.57,0,0,0-.46-.66H40.72Z" transform="translate(0 47.98)"/><path class="cls-2" d="M54.29-25.65h-.2c-.11,0-.23,0-.31,0s-.08-.17-.12-.27a.56.56,0,0,0-.35-.34,1.57,1.57,0,0,0-.86,0,.45.45,0,0,0-.38.44.43.43,0,0,0,.3.5c.3.11.61.17.92.26a4.32,4.32,0,0,1,.51.16.85.85,0,0,1,.6.74,1.07,1.07,0,0,1-.53,1,1.79,1.79,0,0,1-.79.21,1.89,1.89,0,0,1-1.27-.31,1.14,1.14,0,0,1-.44-1h.55a.24.24,0,0,0,0,.12.66.66,0,0,0,.43.6,1.49,1.49,0,0,0,1.06,0,.54.54,0,0,0,.36-.53.45.45,0,0,0-.35-.46c-.28-.09-.58-.15-.85-.24a3.19,3.19,0,0,1-.74-.3,1,1,0,0,1-.25-1.31,1.08,1.08,0,0,1,.36-.31,2,2,0,0,1,1.74,0A1,1,0,0,1,54.29-25.65Z" transform="translate(0 47.98)"/><path class="cls-2" d="M31.28-24.24h.52a.76.76,0,0,0,.8.79,1.3,1.3,0,0,0,.73-.09.52.52,0,0,0,.33-.52.42.42,0,0,0-.33-.44c-.29-.1-.59-.17-.87-.25a1.82,1.82,0,0,1-.74-.32,1,1,0,0,1-.17-1.33.92.92,0,0,1,.27-.25,2,2,0,0,1,1.84,0,1,1,0,0,1,.5,1h-.51a.4.4,0,0,1-.07-.09.63.63,0,0,0-.65-.58,2.15,2.15,0,0,0-.62,0,.45.45,0,0,0-.39.43.45.45,0,0,0,.32.5c.3.1.61.17.92.26a4,4,0,0,1,.58.2.89.89,0,0,1,.55.84,1,1,0,0,1-.52.93,2,2,0,0,1-1.14.19,1.54,1.54,0,0,1-.92-.31A1.16,1.16,0,0,1,31.28-24.24Z" transform="translate(0 47.98)"/><path class="cls-2" d="M47.76-24.67v1.16h2.09V-23H47.23v-3.72H49.9v.48H47.8v1.1h1.84v.47Z" transform="translate(0 47.98)"/><path class="cls-2" d="M36.41-23.51h2.07V-23H35.84v-3.72h2.65v.49H36.41v1.08h1.84v.49H36.41Z" transform="translate(0 47.98)"/><path class="cls-2" d="M57.26-23l1.42-2-1.3-1.76H58s.09.05.12.1c.27.37.54.73.8,1.12a.76.76,0,0,1,.11.14l.89-1.23a.26.26,0,0,1,.25-.13h.49l-1.3,1.78,1.42,2h-.61a.74.74,0,0,1-.11-.1l-.9-1.23L59-24.51l-.14.19c-.29.42-.58.83-.88,1.23a.27.27,0,0,1-.18.1Z" transform="translate(0 47.98)"/><path class="cls-2" d="M44.75-26.71h.54V-23h-.54Z" transform="translate(0 47.98)"/><path class="cls-2" d="M18.07-33.27h0c2.55,1.94,6.86,6.7,5.56,8a8.47,8.47,0,0,1-11.11,0c-1.33-1.34,3-6.1,5.53-8h0Zm4.41-5.54A8.26,8.26,0,0,0,18.07-40a8.26,8.26,0,0,0-4.41,1.24v.05s0,0,0,0c1.64-.35,4.13,1.06,4.36,1.21h0c.24-.15,2.71-1.56,4.35-1.21h.05v-.05ZM12.19-37.63h0a8.47,8.47,0,0,0-.73,11.11h0c.05,0,0,0,0,0-.65-2,2.66-6.82,4.36-8.83h0c-2.64-2.58-3.5-2.3-3.65-2.24Zm8.23,2.21h0c1.7,2,5,6.84,4.35,8.82v.05h.05A8.45,8.45,0,0,0,24-37.67H24s-1-.3-3.6,2.26Z" transform="translate(0 47.98)"/></svg>