<?xml version="1.0" encoding="UTF-8"?>
<svg width="100px" height="46px" viewBox="0 0 100 46" version="1.1" xmlns="http://www.w3.org/2000/svg" xmlns:xlink="http://www.w3.org/1999/xlink">
    <!-- Generator: Sketch 56.3 (81716) - https://sketch.com -->
    <title>FireTV</title>
    <desc>Created with Sketch.</desc>
    <g id="FireTV" stroke="none" stroke-width="1" fill="none" fill-rule="evenodd">
        <g id="FireTv" transform="translate(28.000000, 12.000000)" fill="#FFFFFF" fill-rule="nonzero">
            <path d="M34.2784657,18.7354625 C30.6614279,21.5360543 25.3891354,23 20.8525117,23 C14.538022,23 8.77528374,20.5813071 4.48388293,16.507719 C4.11604858,16.1894699 4.42257721,15.7439212 4.85171729,15.9985204 C9.51095245,18.7991123 15.2736907,20.5176572 21.2203461,20.5176572 C25.266524,20.5176572 29.6805362,19.6265598 33.7267141,17.8443651 C34.4010771,17.5897658 34.8915229,18.2899138 34.2784657,18.7354625 L34.2784657,18.7354625 Z" id="Shape"></path>
            <path d="M35.4969026,17.5707073 C35.0220127,16.9492376 32.5288407,17.2599725 31.4009773,17.4464134 C31.0448098,17.5085604 30.9854486,17.1978255 31.341616,16.9492376 C33.3598981,15.4577102 36.624766,15.892739 37.0402947,16.3899148 C37.3964621,16.8870906 36.9215722,20.3673213 35.0813739,21.9831426 C34.7845677,22.2317306 34.4877615,22.1074366 34.6658452,21.7967017 C34.9626514,20.6159092 35.9124312,18.1921771 35.4969026,17.5707073 L35.4969026,17.5707073 Z" id="Shape"></path>
            <path d="M21.3510125,5.8222725 C23.4183068,5.8222725 23.4183068,7.66666667 23.3556615,8.49346405 L18.9704918,8.49346405 C19.0957823,7.09426848 19.7222352,5.8222725 21.3510125,5.8222725 L21.3510125,5.8222725 Z M24.7338577,9.70186023 C24.9844388,9.70186023 25.0470841,8.81146305 25.0470841,8.42986425 C25.1723746,5.7586727 23.7315332,4.42307692 21.476303,4.42307692 C20.2233974,4.42307692 19.0331371,4.86827552 18.344039,5.7586727 C17.6549409,6.58547009 17.2790692,7.73026647 17.2790692,9.25666164 C17.2790692,10.7830568 17.5922956,11.9278532 18.2813937,12.7546506 C18.9704918,13.581448 19.9728163,14.1538462 21.7268842,14.1538462 C22.4159823,14.1538462 23.7315332,14.0266466 24.5459218,13.581448 C24.8591482,13.4542484 24.8591482,13.3270488 24.8591482,13.0090498 L24.8591482,12.5002514 C24.8591482,12.2458522 24.7338577,12.1186526 24.4832765,12.1822524 C23.5435973,12.5002514 22.6039181,12.627451 22.0401106,12.627451 C21.0377861,12.627451 20.2233974,12.309452 19.7222352,11.7370538 C19.2837182,11.1010558 19.0957823,10.401458 19.0331371,9.57466063 C20.8498502,9.70186023 22.7918539,9.70186023 24.7338577,9.70186023 L24.7338577,9.70186023 Z" id="Shape"></path>
            <path d="M3.29328794,4.37479758 L3.29328794,2.63323024 C3.29328794,1.26485591 4.61060312,1.38925357 5.50877255,1.51365124 C5.86804033,1.57585008 6.04767422,1.51365124 6.04767422,1.20265707 L6.04767422,0.642867573 C6.04767422,0.331873406 5.92791829,0.269674572 5.56865052,0.145276905 C3.47292183,-0.290114929 1.61670499,0.145276905 1.61670499,2.94422441 L1.61670499,4.37479758 L0.359267775,4.49919525 C0.119755925,4.49919525 0,4.62359292 0,4.87238825 L0,5.30778008 C0,5.55657542 0.119755925,5.68097308 0.359267775,5.68097308 L1.61670499,5.68097308 L1.61670499,12.8960378 C1.61670499,13.1448331 1.73646091,13.2692308 1.97597276,13.2692308 L2.99389813,13.2692308 C3.23340998,13.2692308 3.3531659,13.1448331 3.3531659,12.8960378 L3.3531659,5.68097308 L5.62852848,5.68097308 C5.86804033,5.68097308 5.98779625,5.55657542 5.98779625,5.30778008 L5.98779625,4.62359292 C5.98779625,4.37479758 5.86804033,4.25039991 5.62852848,4.25039991 L3.29328794,4.25039991 L3.29328794,4.37479758 Z" id="Shape"></path>
            <path d="M9.6474803,4.76829268 L8.42354623,4.76829268 C8.13556174,4.76829268 7.9915695,4.89774859 7.9915695,5.15666041 L7.9915695,13.7654784 C7.9915695,14.0243902 8.13556174,14.1538462 8.42354623,14.1538462 L9.6474803,14.1538462 C9.93546479,14.1538462 10.079457,14.0243902 10.079457,13.7654784 L10.079457,5.15666041 C10.0074609,4.89774859 9.93546479,4.76829268 9.6474803,4.76829268 L9.6474803,4.76829268 Z M8.9995152,0.884615385 C8.27955399,0.884615385 7.77558114,1.33771107 7.77558114,1.98499062 C7.77558114,2.69699812 8.27955399,3.08536585 9.07151133,3.08536585 C9.86346866,3.08536585 10.3674415,2.63227017 10.3674415,1.98499062 C10.2954454,1.27298311 9.79147254,0.884615385 8.9995152,0.884615385 L8.9995152,0.884615385 Z" id="Shape"></path>
            <path d="M39.4686686,13.2692308 L38.3493283,13.2692308 C38.100586,13.2692308 37.9762148,13.1472149 37.8518437,12.903183 L34.6181938,4.85013263 C34.4938227,4.6061008 34.5560082,4.42307692 34.8669361,4.42307692 L36.048462,4.42307692 C36.2972043,4.42307692 36.3593899,4.54509284 36.4837611,4.78912467 L38.9089985,11.6220159 L41.3342359,4.78912467 C41.458607,4.54509284 41.5207926,4.42307692 41.8317205,4.42307692 L42.8888752,4.42307692 C43.1998031,4.42307692 43.2619887,4.54509284 43.1376175,4.78912467 L39.9039677,12.8421751 C39.7795965,13.1472149 39.7174109,13.2692308 39.4686686,13.2692308 L39.4686686,13.2692308 Z" id="Shape"></path>
            <path d="M28.4319229,10.870835 C28.4319229,12.9002468 29.8369382,13.2692308 30.8754277,13.2692308 C31.4252162,13.2692308 31.8528296,13.2077334 32.2804429,13.1462361 C32.8302315,12.9617441 32.8302315,12.9002468 32.8302315,12.6542575 C32.8302315,12.4697655 32.8302315,12.2237762 32.8302315,12.0392842 C32.8302315,11.7932949 32.7080562,11.7317976 32.4637058,11.7932949 C32.0360924,11.8547923 31.791742,11.9162896 31.3641286,11.9162896 C30.2034639,11.8547923 30.1423763,11.4858083 30.1423763,10.3788564 L30.1423763,5.70505965 L32.4026181,5.70505965 C32.6469686,5.70505965 32.7691438,5.58206499 32.7691438,5.33607569 L32.7691438,4.6596051 C32.7691438,4.4136158 32.6469686,4.29062114 32.4026181,4.29062114 L30.1423763,4.29062114 L30.1423763,2.13821473 C30.1423763,1.95372275 30.020201,1.76923077 29.7758505,1.76923077 L29.1038867,1.76923077 C28.8595363,1.76923077 28.6762734,1.89222542 28.6762734,2.13821473 L28.4319229,4.29062114 L27.149083,4.47511312 C26.9047325,4.47511312 26.7825572,4.6596051 26.7825572,4.90559441 L26.7825572,5.33607569 C26.7825572,5.58206499 26.9047325,5.70505965 27.149083,5.70505965 L28.4319229,5.70505965 C28.4319229,7.36548745 28.4319229,9.14890991 28.4319229,10.870835 L28.4319229,10.870835 Z" id="Shape"></path>
            <path d="M13.7615444,5.75605901 L13.6381225,4.78661749 C13.5764115,4.54425711 13.4529896,4.48366702 13.2678567,4.48366702 L12.4656142,4.48366702 C12.2187704,4.48366702 12.0953484,4.60484721 12.0953484,4.84720759 L12.0953484,12.9056902 C12.0953484,13.1480506 12.2187704,13.2692308 12.4656142,13.2692308 L13.5147005,13.2692308 C13.7615444,13.2692308 13.8849663,13.1480506 13.8849663,12.9056902 L13.8849663,6.84668072 C14.5637869,6.36195996 15.1191855,5.99841939 16.4768267,5.99841939 C16.7853815,5.99841939 17.2790692,6.11959958 17.2790692,5.75605901 L17.2790692,4.78661749 C17.2790692,4.54425711 17.1556473,4.42307692 16.7236705,4.42307692 C15.5511623,4.42307692 14.8106307,4.6654373 13.7615444,5.75605901 L13.7615444,5.75605901 Z" id="Shape"></path>
        </g>
    </g>
</svg>