<svg height="46" viewBox="0 0 100 46" width="100" xmlns="http://www.w3.org/2000/svg"><path d="m17.390393 23.3186273 5.2820961-7.076812h-2.2008734c-.990393 0-1.6139738.3483405-2.1458515 1.0450215l-2.7877729 3.7400767-2.6960699-3.7400767c-.5135371-.696681-1.1554585-1.0450215-2.1458515-1.0450215h-2.20087339l5.20873359 7.076812-5.7039301 7.700158h2.0908297c.990393 0 1.6139738-.3483405 2.1458515-1.0450215l3.3013101-4.3817566 7.7397379 10.6885528c.4951965.6966809 1.1554586 1.0450214 2.1458516 1.0450214h2.2558952zm42.2200875 7.700158h2.9895195v-14.77697h-2.9895195zm-23.6777294 0h2.9895197v-14.77697h-2.9895197zm45.2646286 5.2067735 10.8026203-19.9837435h-1.6139736c-.9903932 0-1.7423582.2933394-2.1458517 1.0450215l-4.255022 7.9018288-3.6864626-7.9018288c-.3851532-.7883496-1.1554586-1.0450215-2.1458518-1.0450215h-1.5589521l5.6855898 12.0452472-4.951965 9.0385189h1.6139735c1.0087341 0 1.8157206-.3116731 2.2558952-1.1000226zm-38.7170303-19.9837435v14.77697h2.9895196v-10.1385414c.9353712-1.3016934 2.2558952-2.1083767 3.9065502-2.1083767 2.2008734 0 3.7048035 1.393362 3.7048035 4.1800858v6.6551367c0 .8433506.5868996 1.4116956 1.3938865 1.4116956h1.5956332v-8.5985098c0-3.8317453-2.4393013-6.4901332-5.9606987-6.4901332-1.889083 0-3.448035.6600135-4.6401747 1.7600361v-1.4483631zm25.6401746 9.533529c0 3.2083992 1.9624456 5.5001129 5.5021836 5.5001129.8620085 0 1.5956332-.1100022 2.1641921-.2933394l-.6052405-2.6033867c-.3851527.0916686-.8436682.1466697-1.3572051.1466697-1.4489082 0-2.732751-.7883496-2.732751-2.8050576v-6.82014h4.1816592l-1.2104801-2.6583879h-2.9528383v-5.9401219l-2.9895199 1.3016934v4.6384285h-3.1545854v2.6583879h3.1545854zm-41.3764192-6.8751411v12.1002484h2.9895197v-12.1002484h3.8331877v-2.6583879h-3.8331877v-1.1000226c0-2.5117182 1.5039301-3.3550688 2.9895196-3.3550688.3851529 0 .7336245.0550011 1.0087336.1466696l.6052402-2.64005415c-.3851528-.14666967-.990393-.29333935-1.8524017-.29333935-3.7048035 0-5.7406114 2.7500564-5.7406114 6.0867916v1.1550237h-1.558952l-1.8890829 2.6583879z" fill="#fff"/></svg>