<?xml version="1.0" encoding="UTF-8"?>
<svg width="100px" height="47px" viewBox="0 0 100 47" version="1.1" xmlns="http://www.w3.org/2000/svg" xmlns:xlink="http://www.w3.org/1999/xlink">
    <!-- Generator: Sketch 56.3 (81716) - https://sketch.com -->
    <title>Ipad</title>
    <desc>Created with Sketch.</desc>
    <g id="Ipad" stroke="none" stroke-width="1" fill="none" fill-rule="evenodd" transform="translate(0.000000, 0.000000)">
        <g id="Group-20" transform="translate(22.000000, 14.000000)" fill="#FFFFFF" fill-rule="nonzero">
            <g id="Group-5">
                <path d="M21.5714054,2.27492508 C21.5714054,2.78861784 21.1944675,3.22892592 20.5913668,3.22892592 C20.0636538,3.22892592 19.6867159,2.78861784 19.6867159,2.27492508 C19.6867159,1.76123232 20.1390414,1.24753956 20.6667544,1.24753956 C21.1190799,1.17415488 21.5714054,1.68784764 21.5714054,2.27492508 Z M19.9882662,17.2453998 L19.9882662,5.57723568 L21.1944675,5.57723568 L21.1944675,17.2453998 L19.9882662,17.2453998 Z M24.3607458,1.02738552 C25.3407843,0.88061616 26.5469856,0.7338468 27.9793496,0.7338468 C29.9394267,0.7338468 31.5225658,1.24753956 32.4272168,2.12815572 C33.2564801,2.86200252 33.7088056,3.96277272 33.7088056,5.35708164 C33.7088056,6.75139056 33.3318677,7.85216076 32.5026043,8.65939224 C31.4471782,9.83354711 29.6378763,10.4940092 27.5270241,10.4940092 C26.7731483,10.4940092 26.0946601,10.4940092 25.4915595,10.2738552 L25.4915595,17.2453998 L24.2853582,17.2453998 L24.3607458,1.02738552 L24.3607458,1.02738552 Z M25.5669471,9.24646967 C26.0946601,9.46662371 26.9239235,9.46662371 27.7531869,9.46662371 C30.76869,9.46662371 32.5779919,8.0723148 32.5779919,5.43046632 C32.5779919,2.86200252 30.6179149,1.68784764 27.9793496,1.68784764 C26.8485359,1.68784764 26.0192725,1.76123232 25.5669471,1.90800168 L25.5669471,9.24646967 L25.5669471,9.24646967 Z M42.8307027,14.456782 C42.8307027,15.4107828 42.8307027,16.3647836 42.9814778,17.2453998 L41.8506641,17.2453998 L41.699889,15.5575522 L41.6245014,15.5575522 C41.0214008,16.4381683 39.6644244,17.4655538 37.7797349,17.4655538 C35.3673323,17.4655538 34.2365187,15.7777062 34.2365187,14.2366279 C34.2365187,11.5213948 36.6489212,9.90693179 41.5491138,9.90693179 L41.5491138,9.61339307 C41.5491138,8.4392382 41.3229511,6.16431312 38.4582231,6.16431312 C37.402797,6.16431312 36.2719833,6.45785184 35.4427199,7.04492928 L35.065782,6.16431312 C36.1965957,5.43046632 37.4781846,5.21031228 38.6089982,5.21031228 C42.0768269,5.21031228 42.7553151,7.77877608 42.7553151,9.83354711 L42.8307027,14.456782 L42.8307027,14.456782 Z M41.6245014,11.007702 C38.9859361,10.9343173 35.5181075,11.3012407 35.5181075,14.0898586 C35.5181075,15.7777062 36.6489212,16.511553 37.93051,16.511553 C39.8905871,16.511553 41.0967884,15.3373981 41.4737263,14.1632432 C41.5491138,13.9430892 41.5491138,13.6495505 41.5491138,13.4293964 L41.6245014,11.007702 L41.6245014,11.007702 Z M55.4204284,9.41469125e-14 L55.4204284,14.5301666 C55.4204284,15.4107828 55.4204284,16.4381683 55.495816,17.2453998 L54.4403899,17.2453998 L54.3650023,15.0438594 L54.2896147,15.0438594 C53.6865141,16.3647836 52.2541501,17.5389385 49.9925227,17.5389385 C46.9770195,17.5389385 44.7907797,15.1172441 44.7907797,11.6681641 C44.7907797,7.77877608 47.2031823,5.35708164 50.2186854,5.35708164 C52.3295376,5.35708164 53.6111265,6.38446716 54.1388395,7.41185268 L54.2142271,7.41185268 L54.2142271,9.41469125e-14 L55.4204284,9.41469125e-14 L55.4204284,9.41469125e-14 Z M54.2142271,10.2004705 C54.2142271,9.90693179 54.2142271,9.46662371 54.1388395,9.09970032 C53.7619016,7.55862204 52.3295376,6.2376978 50.3694606,6.2376978 C47.7308953,6.2376978 46.0723686,8.4392382 46.0723686,11.4480101 C46.0723686,14.0898586 47.429345,16.511553 50.294073,16.511553 C52.0279873,16.511553 53.6111265,15.4107828 54.1388395,13.5027811 C54.2142271,13.2092424 54.2142271,12.9157037 54.2142271,12.5487803 L54.2142271,10.2004705 L54.2142271,10.2004705 Z" id="Ipad"></path>
                <g id="Group-3">
                    <path d="M7.84182312,5.03942123 C8.43929536,5.03942123 9.63423983,4.19951769 11.2026045,4.19951769 C13.8165455,4.19951769 14.8621219,5.94931673 14.8621219,5.94931673 C14.8621219,5.94931673 12.8456531,6.92920419 12.8456531,9.30893089 C12.8456531,11.9686254 15.3849101,12.8785209 15.3849101,12.8785209 C15.3849101,12.8785209 13.5924934,17.5679824 11.2026045,17.5679824 C10.082344,17.5679824 9.26081969,16.8680627 8.06587521,16.8680627 C6.87093073,16.8680627 5.75067029,17.5679824 4.92914596,17.5679824 C2.7633091,17.5679824 -1.95399252e-14,13.1584888 -1.95399252e-14,9.58889873 C-1.95399252e-14,6.08930066 2.31520492,4.26950966 4.48104178,4.26950966 C5.97472238,4.26950966 7.09498282,5.03942123 7.84182312,5.03942123 Z" id="Path"></path>
                    <path d="M8.43929536,1.53982315 C9.70892386,7.72715225e-14 11.3519725,7.72715225e-14 11.3519725,7.72715225e-14 C11.3519725,7.72715225e-14 11.5760246,1.39983923 10.3810801,2.79967846 C9.0367676,4.26950966 7.61777103,4.05953377 7.61777103,4.05953377 C7.61777103,4.05953377 7.39371894,2.86967042 8.43929536,1.53982315 L8.43929536,1.53982315 Z" id="Path"></path>
                </g>
            </g>
        </g>
    </g>
</svg>