<?xml version="1.0" encoding="UTF-8"?>
<svg width="100px" height="46px" viewBox="0 0 100 46" version="1.1" xmlns="http://www.w3.org/2000/svg" xmlns:xlink="http://www.w3.org/1999/xlink">
    <!-- Generator: Sketch 56.3 (81716) - https://sketch.com -->
    <title>Ps4</title>
    <desc>Created with Sketch.</desc>
    <g id="Ps4" stroke="none" stroke-width="1" fill="none" fill-rule="evenodd">
        <path d="M75.422156,27.3490225 C75.4453607,27.3641425 75.483897,27.3752483 75.5439044,27.3752483 L86.3777318,27.3752483 C86.4173295,27.3752483 86.4585398,27.3345755 86.4585398,27.2940819 L86.4585398,20.6248232 C86.4585398,20.5269399 86.4001683,20.4875438 86.3409015,20.4875438 C86.3391795,20.4875438 86.3374568,20.4875438 86.3357348,20.4876463 C86.3374567,20.4875438 86.3391795,20.4875438 86.3409015,20.4875438 L75.422156,27.3490225 Z M75.4195861,27.3472884 L86.3357348,20.4876463 C86.3067375,20.488775 86.2779395,20.4991766 86.2560719,20.5166014 L75.4774304,27.1860393 C75.441305,27.2075628 75.4167703,27.2290361 75.4037925,27.2525022 C75.4032434,27.2535006 75.4027152,27.2545026 75.4022079,27.2555084 C75.3920527,27.2755363 75.3901963,27.297058 75.3966224,27.3213165 C75.400797,27.3303218 75.4081675,27.3393072 75.4195861,27.3472884 Z M94.0662712,28.55225 L94.4239518,29.6615236 L94.7882149,28.55225 L95,28.55225 L95,29.8510909 L94.8546889,29.8510909 L94.8546889,28.7957491 L94.5047598,29.8510909 L94.3307807,29.8510909 L93.9808516,28.7957491 L93.9808516,29.8510909 L93.8052599,29.8510909 L93.8052599,28.55225 L94.0662712,28.55225 Z M93.0516491,29.8510909 L93.0516491,28.7011446 L92.6352459,28.7011446 L92.6352459,28.55225 L93.6434647,28.55225 L93.6434647,28.7011446 L93.2274199,28.7011446 L93.2274199,29.8510909 L93.0516491,29.8510909 Z M65.0884949,26.7395347 C65.0884949,28.4617666 64.0533998,29.8039679 61.9509582,29.8591538 L53.8846707,29.8591538 C53.8527775,29.8478658 53.8255429,29.8140017 53.8255429,29.7697454 L53.8255429,28.7009654 C53.8255429,28.6468545 53.8660364,28.6197991 53.9063509,28.6197991 L61.0110052,28.6197991 C62.0871314,28.6197991 62.6128314,27.8350118 62.6128314,26.7393555 L62.6128314,21.3687586 C62.6128314,19.7805498 63.4838019,18.5379699 65.2667742,18.3113133 L73.4925277,18.3113133 C73.4961112,18.3200928 73.4987988,18.3292308 73.4987988,18.3385479 L73.4987988,19.4071487 C73.4987988,19.4476423 73.4592011,19.4884942 73.4179908,19.4884942 L66.6905002,19.4884942 C65.5998609,19.4884942 65.0884949,20.2731023 65.0884949,21.3687586 L65.0884949,26.7395347 Z M37.4494686,29.859333 C37.4134544,29.8478658 37.3944618,29.8141809 37.3946385,29.7699246 L37.3946385,26.3471411 C37.3946385,24.5887158 38.5788098,23.2492021 40.1532221,23.2492021 L50.2995544,23.2492021 C51.3896562,23.2492021 51.9010222,22.464594 51.9010222,21.3687586 C51.9010222,20.2731023 51.3896562,19.4884942 50.2995544,19.4884942 L37.4752698,19.4884942 C37.4215173,19.4884942 37.3946385,19.4612596 37.3946385,19.4071487 L37.3946385,18.3385479 C37.3946385,18.3272599 37.4016288,18.320272 37.4057499,18.3113133 L51.7231013,18.3113133 C53.5069694,18.5379699 54.3772232,19.7805498 54.3772232,21.3687586 C54.3772232,23.1409803 53.3139977,24.493753 51.1205351,24.493753 L41.3911435,24.493753 C40.489534,24.493753 39.8706629,25.2514848 39.8706629,26.3471411 L39.8706629,29.7699246 C39.8706629,29.8141809 39.8434282,29.848045 39.8115351,29.859333 L37.4494686,29.859333 Z M73.4593803,28.6199783 C72.8528723,28.6199783 72.5441534,28.4440282 72.4366483,28.20035 C72.3019086,27.9161781 72.4905801,27.537581 73.0288223,27.1994774 L86.9428504,18.6089232 C87.1876037,18.4618204 87.4158728,18.365245 87.6258662,18.3113133 L88.2995648,18.3113133 C88.6975129,18.4458738 88.9342033,18.8515264 88.9342033,19.4884942 L88.9342033,27.2942611 C88.9342033,27.3347547 88.9754136,27.3754274 89.0150113,27.3754274 L91.329238,27.3754274 C91.3831697,27.3754274 91.410046,27.415921 91.410046,27.4565938 L91.410046,28.5389911 C91.410046,28.5793055 91.3831697,28.6199783 91.329238,28.6199783 L89.0150113,28.6199783 C88.9754136,28.6199783 88.9342033,28.6604719 88.9342033,28.7011446 L88.9342033,29.7699246 C88.9342033,29.8240355 88.894964,29.8510909 88.8537537,29.8510909 L86.525193,29.8510909 C86.4855953,29.8510909 86.444385,29.8240355 86.444385,29.7699246 L86.444385,28.6740892 C86.444385,28.6470337 86.4175087,28.6199783 86.377911,28.6199783 L73.4593803,28.6199783 Z M14.0255385,14 C15.0751468,14.1956593 16.1068375,14.4751726 17.1335113,14.7665114 C17.7208475,14.9370862 18.3065712,15.1135738 18.8885322,15.3015285 C19.802684,15.5926882 20.7128939,15.9223705 21.5408624,16.4140272 C21.9117551,16.6392505 22.2679553,16.8936792 22.572374,17.2040106 C22.9022355,17.5263468 23.1722525,17.9087066 23.3704202,18.3247514 C23.7314582,19.0787206 23.8550891,19.9210231 23.8916408,20.7491708 C23.9088417,21.2895632 23.9077666,21.8346141 23.806891,22.3680186 C23.723037,22.8315448 23.5739632,23.2886207 23.3259848,23.6912273 C23.1070327,24.0468901 22.8026141,24.3543547 22.4331548,24.5525224 C22.0787463,24.7435232 21.6729145,24.8345442 21.2710246,24.8264813 C20.6614706,24.8329316 20.0700134,24.6385265 19.5229915,24.3839186 C19.5131369,22.5647529 19.5215581,20.745229 19.5186913,18.9262425 C19.5147495,18.5970977 19.5371464,18.2645485 19.4708515,17.9398831 C19.424266,17.6883212 19.3215986,17.4347883 19.1241476,17.2640343 C18.9931705,17.1459579 18.8234916,17.0793047 18.6529168,17.0432905 C18.4803711,17.0105014 18.2963582,17.0837841 18.1895698,17.2222865 C18.0120072,17.4441054 17.9654216,17.7386694 17.9573588,18.0147783 C17.9559254,22.884939 17.9591505,27.7552788 17.9559254,32.6250811 C16.6457964,32.2099322 15.3354883,31.794425 14.0257177,31.3780219 C14.0242843,25.5852882 14.0248145,19.7927337 14.0255385,14 Z M8.13676696,26.3242066 C9.84484399,25.7194904 11.5511293,25.1090405 13.259923,24.5062952 C13.2626106,25.1769479 13.259923,25.8477798 13.260998,26.5189701 C13.259923,26.6099911 13.2658358,26.7013704 13.2543686,26.7918539 C11.903746,27.27061 10.5558111,27.7577873 9.20644281,28.2395894 C9.01938392,28.3101844 8.8274873,28.3902757 8.68325127,28.5330783 C8.61606058,28.6000898 8.56141215,28.6989945 8.59814306,28.7950324 C8.64437026,28.908092 8.75975908,28.969549 8.86618913,29.0161346 C9.16218654,29.1365403 9.48577692,29.153562 9.80112524,29.1680752 C10.152667,29.1625207 10.5056421,29.136182 10.8500168,29.0602117 C11.0827653,29.014522 11.3067343,28.9360433 11.5285532,28.8527268 C12.1051389,28.6439877 12.6817247,28.4339944 13.2592063,28.2274054 C13.2635065,28.7946741 13.259923,29.362301 13.260998,29.9301072 C13.2592063,30.0435251 13.2661941,30.1576597 13.2549061,30.2707192 C12.5457307,30.3981128 11.8281341,30.4846544 11.1073123,30.4959424 C9.65581417,30.5287315 8.20091168,30.3040458 6.82215864,29.8503742 C6.36992048,29.7193972 5.92054912,29.5450597 5.54302701,29.2578419 C5.3351838,29.0969426 5.14919996,28.8946538 5.05459546,28.6457795 C4.97540003,28.4350695 4.98113363,28.1915704 5.07985916,27.9882066 C5.17500118,27.7853803 5.34127575,27.6250185 5.52439279,27.5004917 C5.9481421,27.2078986 6.41543098,26.9848255 6.88899099,26.7857619 C7.29697288,26.6116036 7.72018466,26.4761472 8.13676696,26.3242066 Z M21.8800411,25.5603828 C22.2674178,25.515589 22.657303,25.5050177 23.0466507,25.491042 C24.3279324,25.4958798 25.6156645,25.6553457 26.8412227,26.0396764 C27.0816758,26.1127799 27.3146035,26.2073844 27.5541608,26.283713 C27.9811352,26.4397746 28.4086472,26.6289836 28.7505135,26.9359107 C28.9560274,27.123328 29.1330525,27.3757858 29.1355609,27.6640787 C29.1477448,27.898619 29.041494,28.123663 28.8893742,28.2967462 C28.5998271,28.6214117 28.2171089,28.8444848 27.8327782,29.039069 C27.4237212,29.2476289 26.9840253,29.3821895 26.5550799,29.5409387 C23.9369722,30.4810709 21.3186852,31.4208447 18.7009358,32.362052 C18.7005774,31.6286879 18.7016525,30.8955031 18.7005774,30.1624974 C18.7045193,30.1332919 18.6883935,30.0822269 18.729783,30.0745224 C20.7218527,29.3657054 22.7133848,28.6549174 24.7050962,27.9443086 C24.9743965,27.8436122 25.2644811,27.7706879 25.4931086,27.5879292 C25.5866381,27.5144674 25.6781966,27.3976452 25.6323277,27.271685 C25.584488,27.1614923 25.4701742,27.1003935 25.3649984,27.054883 C25.0668509,26.9368066 24.7421854,26.9138722 24.4250454,26.9050926 C23.9285509,26.9084969 23.4275771,26.9697748 22.9554505,27.1288824 C21.5365622,27.6260935 20.1201824,28.1293966 18.7009358,28.6249952 C18.701115,27.8375202 18.7005774,27.0505828 18.7012941,26.2632871 C19.7281471,25.9029658 20.8003314,25.6845512 21.8800411,25.5603828 Z M27.7001885,30.9850907 C28.0099824,30.9463888 28.3335728,31.0852496 28.5191983,31.3364532 C28.7218454,31.5955405 28.7589347,31.9693 28.6157737,32.2652974 C28.4713585,32.5724036 28.1409595,32.787593 27.7989141,32.776305 C27.4841033,32.7832928 27.1791471,32.5999966 27.0241606,32.3285462 C26.8840456,32.0893473 26.8673823,31.783137 26.9757833,31.5287082 C27.0976224,31.2350401 27.384661,31.0205674 27.7001885,30.9850907 Z M27.6328187,31.1504694 C27.4593771,31.1898879 27.3018821,31.2950638 27.1983188,31.4396581 C27.0737921,31.6096954 27.026669,31.8347394 27.0739713,32.0406117 C27.1137482,32.2317916 27.2346914,32.4025456 27.39792,32.5084381 C27.6493028,32.6736376 28.0017404,32.6644997 28.2421935,32.4829952 C28.4903511,32.3077619 28.6082484,31.9710917 28.522961,31.6795737 C28.4702835,31.482481 28.3294518,31.314773 28.1520684,31.2171225 C27.9943942,31.1332686 27.8062602,31.1090799 27.6328187,31.1504694 Z M27.4181668,31.3613586 C27.5796036,31.3604627 27.741578,31.3611794 27.903194,31.360821 C27.9945734,31.3620753 28.0952698,31.3833971 28.1599521,31.4534546 C28.2251718,31.5270956 28.2303679,31.6340632 28.2124504,31.7263384 C28.2024166,31.787258 28.148664,31.8232722 28.109783,31.8659159 C28.1436471,31.8958381 28.1868283,31.9239686 28.1948912,31.9727043 C28.2135254,32.0658754 28.1938162,32.1640634 28.2237384,32.2554427 C28.2425518,32.2876943 28.2617236,32.3203042 28.263157,32.359006 C28.1961454,32.3607977 28.1293131,32.3595435 28.0623016,32.3606186 C28.0171494,32.2543677 28.0508344,32.1348578 28.0227039,32.0253818 C28.011595,31.9807672 27.9653678,31.952995 27.9212907,31.9544284 C27.8119939,31.9497699 27.7023386,31.952995 27.5934001,31.9528159 C27.5917876,32.0886306 27.597342,32.224983 27.590175,32.3606186 C27.5331973,32.3597227 27.4760404,32.3597227 27.4190627,32.3607977 C27.4161959,32.0271736 27.4181668,31.6944452 27.4181668,31.3613586 Z M27.5934001,31.5197494 C27.5935793,31.6116663 27.5935793,31.7035832 27.5934001,31.7958584 C27.6910506,31.7963959 27.7888803,31.7971126 27.8868891,31.7962167 C27.9354456,31.7958584 27.9918857,31.7867205 28.0234206,31.7455102 C28.056568,31.6930118 28.0558513,31.6231335 28.025929,31.5697393 C28.0008445,31.5276331 27.9476295,31.5235121 27.9039107,31.5208245 C27.8003475,31.5177785 27.6967842,31.5195703 27.5934001,31.5197494 Z" id="Shape" fill="#FFFFFF" fill-rule="nonzero"></path>
    </g>
</svg>